<svg width="50" height="50" viewBox="0 0 50 50" fill="none" xmlns="http://www.w3.org/2000/svg">
<path d="M49.2979 45.7848L40.0285 36.5833C43.6266 32.0936 45.369 26.3949 44.8976 20.6589C44.4261 14.923 41.7766 9.58579 37.4938 5.74481C33.2109 1.90383 27.6203 -0.148998 21.8716 0.0084288C16.1228 0.165856 10.6527 2.52157 6.58619 6.59119C2.51966 10.6608 0.16573 16.135 0.0084224 21.8882C-0.148885 27.6413 1.90239 33.2362 5.74045 37.5222C9.57851 41.8083 14.9116 44.4599 20.6432 44.9317C26.3748 45.4035 32.0692 43.6597 36.5555 40.0589L45.7501 49.2604C45.9823 49.4947 46.2587 49.6808 46.5631 49.8077C46.8676 49.9346 47.1942 50 47.524 50C47.8538 50 48.1804 49.9346 48.4849 49.8077C48.7893 49.6808 49.0657 49.4947 49.2979 49.2604C49.7483 48.7941 50 48.1711 50 47.5226C50 46.8741 49.7483 46.2511 49.2979 45.7848ZM22.5389 40.0589C19.0797 40.0589 15.6983 39.0323 12.8221 37.1091C9.946 35.1859 7.70431 32.4523 6.38057 29.254C5.05682 26.0558 4.71047 22.5366 5.38531 19.1413C6.06015 15.7461 7.72587 12.6274 10.1718 10.1796C12.6178 7.73174 15.7341 6.06475 19.1268 5.3894C22.5195 4.71405 26.036 5.06066 29.2318 6.38541C32.4276 7.71017 35.1591 9.95355 37.0809 12.8319C39.0027 15.7102 40.0285 19.0942 40.0285 22.556C40.0285 27.198 38.1858 31.65 34.9059 34.9324C31.6259 38.2148 27.1774 40.0589 22.5389 40.0589Z" fill="#43DAEF"/>
</svg>
